<?xml version="1.0" encoding="utf-8"?>
<!-- Generator: Adobe Illustrator 24.2.1, SVG Export Plug-In . SVG Version: 6.00 Build 0)  -->
<svg version="1.1" id="Layer_1" xmlns="http://www.w3.org/2000/svg" xmlns:xlink="http://www.w3.org/1999/xlink" x="0px" y="0px"
	 viewBox="0 0 76.1 48.9" style="enable-background:new 0 0 76.1 48.9;" xml:space="preserve">
<style type="text/css">
	.st0{fill:none;}
	.st1{fill:#D2232A;}
	.st2{fill:none;stroke:#000000;stroke-width:0.5;stroke-miterlimit:10;}
</style>
<g>
	<line class="st0" x1="23.2" y1="9.3" x2="23.2" y2="14.9"/>
	<rect x="21.9" y="9.3" class="st1" width="2.5" height="5.6"/>
</g>
<path d="M36.3,17.7L25.1,9.5l0,0l0,0L16.4,16l0,0v7.2c-0.6-0.4-1.3-0.7-2-0.8c-0.7-0.1-1.5-0.2-2.4-0.2c-1.1,0-2.1,0.2-3,0.5
	c-0.9,0.4-1.7,0.8-2.3,1.5c-0.7,0.6-1.2,1.4-1.5,2.3c-0.4,0.9-0.6,1.9-0.6,3c0,1.2,0.2,2.3,0.5,3.2s0.8,1.7,1.5,2.3s1.4,1.1,2.3,1.4
	c0.9,0.3,2,0.5,3.3,0.5c0.8,0,1.4,0,2,0c0.5,0,1.1-0.1,1.6-0.1c0.5-0.1,1.1-0.1,1.6-0.2c0.5-0.1,1-0.2,1.6-0.4V16.5l6.1-4.5l5,3.7
	h-8.2v2H36.3L36.3,17.7z M16.4,34.2c-0.6,0.2-1.3,0.3-1.8,0.4c-0.6,0.1-1.2,0.1-2,0.1s-1.5-0.1-2.1-0.3c-0.6-0.2-1.2-0.5-1.7-1
	c-0.5-0.4-0.8-1-1.1-1.7c-0.3-0.7-0.4-1.5-0.4-2.4s0.1-1.6,0.4-2.3c0.3-0.7,0.6-1.2,1.1-1.6s1-0.7,1.6-1c0.6-0.2,1.3-0.3,2-0.3
	c1.6,0,3,0.5,4.2,1.4L16.4,34.2L16.4,34.2z"/>
<path d="M24.5,18.2v18.2h-2.7V18.2H24.5z"/>
<path d="M28.8,22.4l4.9,11.8h0.1l5-11.8h2.7l-6.4,14h-3l-6.1-14C26,22.4,28.8,22.4,28.8,22.4z"/>
<path d="M42.8,23.3c1-0.4,2-0.7,2.9-0.9c0.9-0.2,1.9-0.3,3.1-0.3c2.1,0,3.6,0.4,4.6,1.1s1.5,2,1.5,3.7v5.9c0,0.7,0.1,1.1,0.3,1.4
	c0.2,0.2,0.7,0.3,1.4,0.3v1.8c-0.3,0.1-0.6,0.2-0.9,0.2s-0.6,0.1-1,0.1c-0.6,0-1-0.2-1.4-0.6c-0.3-0.4-0.5-1-0.6-1.7
	c-1.3,1.5-3.2,2.3-5.8,2.3c-1.6,0-2.9-0.4-3.7-1.1c-0.8-0.8-1.3-1.8-1.3-3.1c0-0.6,0.1-1.2,0.3-1.7s0.5-1,1-1.6
	c0.6-0.2,1.3-0.4,1.9-0.5c0.6-0.1,1.3-0.3,2.1-0.4s1.5-0.2,2.3-0.2c0.8-0.1,1.7-0.1,2.7-0.1v-0.8c0-1-0.3-1.7-0.8-2.1
	s-1.5-0.7-2.8-0.7c-1.8,0-3.5,0.4-5.3,1.1L42.8,23.3z M52.3,29.7c-1.6,0-3,0.1-4.1,0.3c-1.1,0.1-2.1,0.3-3,0.6
	c-0.4,0.5-0.6,1-0.6,1.7c0,0.8,0.2,1.3,0.7,1.7s1.2,0.6,2,0.6c0.9,0,1.8-0.1,2.6-0.4c0.8-0.3,1.6-0.8,2.4-1.4L52.3,29.7L52.3,29.7z"
	/>
<path d="M60.7,22.4l0.2,2.2c0.7-0.9,1.5-1.5,2.4-1.9s1.9-0.6,2.9-0.6c1.9,0,3.4,0.5,4.3,1.6s1.4,2.6,1.4,4.5v8.2h-2.6v-8.2
	c0-1.2-0.2-2.2-0.7-2.9s-1.3-1.1-2.5-1.1c-1.1,0-2.1,0.2-2.9,0.6c-0.8,0.4-1.5,1-2.2,1.9v9.6h-2.6v-14L60.7,22.4L60.7,22.4z"/>
<line class="st2" x1="24.5" y1="4.2" x2="42.4" y2="17.9"/>
<line class="st2" x1="24.8" y1="4.2" x2="12.4" y2="13.7"/>
<line class="st2" x1="12.5" y1="18.2" x2="12.5" y2="13.5"/>
<path class="st2" d="M73.8,39.9V22.8v-0.4c0,0-0.6-4.5-7.2-4.5H42.2"/>
<line class="st2" x1="74" y1="39.7" x2="2.5" y2="40.2"/>
<line class="st2" x1="2.8" y1="39.9" x2="2.8" y2="24.1"/>
<path class="st2" d="M12.3,17.9c0,0-9.5-0.7-9.5,6.3"/>
</svg>
