<?xml version="1.0" encoding="utf-8"?>
<!-- Generator: Adobe Illustrator 24.2.1, SVG Export Plug-In . SVG Version: 6.00 Build 0)  -->
<svg version="1.1" id="Layer_1" xmlns="http://www.w3.org/2000/svg" xmlns:xlink="http://www.w3.org/1999/xlink" x="0px" y="0px"
	 viewBox="0 0 76.1 36.48" style="enable-background:new 0 0 76.1 36.48;" xml:space="preserve">
<style type="text/css">
	.st0{fill:#D2232A;}
	.st1{fill:#FFFFFF;}
	.st2{fill:none;stroke:#FFFFFF;stroke-width:0.5;stroke-miterlimit:10;}
</style>
<g>
	<g>
		<line class="st0" x1="24.93" y1="5.02" x2="24.93" y2="10.62"/>
		<rect x="23.68" y="5.02" class="st0" width="2.5" height="5.61"/>
	</g>
	<path class="st1" d="M38.05,13.45L26.86,5.27L26.83,5.3l-0.01-0.01l-8.66,6.42h-0.02v7.22c-0.63-0.41-1.28-0.69-1.95-0.84
		c-0.66-0.15-1.48-0.22-2.45-0.22c-1.08,0-2.08,0.17-2.98,0.52c-0.91,0.35-1.69,0.83-2.34,1.46c-0.65,0.63-1.16,1.39-1.53,2.28
		c-0.36,0.9-0.55,1.89-0.55,2.97c0,1.21,0.17,2.28,0.52,3.19c0.35,0.91,0.84,1.68,1.48,2.3c0.64,0.62,1.42,1.08,2.32,1.39
		c0.91,0.31,2.01,0.46,3.32,0.46c0.78,0,1.44-0.01,1.96-0.04c0.52-0.03,1.05-0.07,1.6-0.13c0.54-0.06,1.07-0.13,1.58-0.24
		c0.51-0.1,1.05-0.23,1.61-0.38V12.28l6.11-4.53l4.98,3.69H23.6v2H38.05z M18.15,29.91c-0.65,0.17-1.26,0.29-1.83,0.35
		c-0.57,0.07-1.24,0.1-2.02,0.1c-0.76,0-1.47-0.11-2.11-0.32c-0.64-0.22-1.2-0.54-1.67-0.97c-0.47-0.43-0.84-0.98-1.1-1.65
		c-0.26-0.66-0.39-1.45-0.39-2.35c0-0.86,0.13-1.61,0.38-2.25c0.25-0.64,0.6-1.17,1.05-1.59c0.45-0.42,0.97-0.74,1.58-0.96
		c0.6-0.22,1.26-0.32,1.97-0.32c1.6,0,2.99,0.45,4.16,1.35V29.91z"/>
	<path class="st1" d="M26.26,13.95v18.2H23.6v-18.2H26.26z"/>
	<path class="st1" d="M30.58,18.15l4.87,11.79h0.11l5.04-11.79h2.69l-6.38,14h-3.03l-6.13-14H30.58z"/>
	<path class="st1" d="M44.55,19.1c1.04-0.43,2.01-0.74,2.9-0.94c0.89-0.2,1.91-0.29,3.07-0.29c2.07,0,3.6,0.38,4.58,1.15
		c0.98,0.77,1.47,2.01,1.47,3.72v5.85c0,0.67,0.11,1.13,0.34,1.36c0.22,0.23,0.69,0.35,1.4,0.35v1.85
		c-0.32,0.09-0.61,0.16-0.88,0.21c-0.27,0.05-0.59,0.07-0.97,0.07c-0.58,0-1.04-0.21-1.37-0.62c-0.34-0.41-0.53-0.97-0.59-1.68
		c-1.29,1.53-3.21,2.3-5.77,2.3c-1.64,0-2.89-0.38-3.74-1.15c-0.85-0.77-1.28-1.81-1.28-3.14c0-0.63,0.1-1.21,0.29-1.74
		c0.2-0.52,0.54-1.05,1.02-1.6c0.63-0.19,1.27-0.35,1.92-0.5c0.64-0.15,1.33-0.27,2.06-0.36c0.73-0.09,1.5-0.17,2.32-0.22
		c0.82-0.06,1.73-0.09,2.71-0.11v-0.79c0-0.97-0.27-1.68-0.8-2.13c-0.53-0.45-1.48-0.67-2.84-0.67c-1.76,0-3.52,0.38-5.29,1.15
		L44.55,19.1z M54.05,25.49c-1.62,0.04-2.98,0.13-4.09,0.27c-1.11,0.14-2.12,0.33-3.03,0.57c-0.37,0.45-0.56,1-0.56,1.67
		c0,0.76,0.24,1.33,0.71,1.71c0.47,0.38,1.15,0.57,2.02,0.57c0.93,0,1.79-0.14,2.58-0.42c0.79-0.28,1.58-0.75,2.36-1.42V25.49z"/>
	<path class="st1" d="M62.42,18.15l0.17,2.21c0.67-0.9,1.46-1.54,2.37-1.92c0.9-0.38,1.86-0.57,2.87-0.57
		c1.94,0,3.39,0.53,4.35,1.58c0.96,1.05,1.44,2.57,1.44,4.55v8.15h-2.61v-8.16c0-1.23-0.23-2.2-0.7-2.91s-1.3-1.06-2.49-1.06
		c-1.1,0-2.06,0.21-2.87,0.61c-0.81,0.41-1.54,1.03-2.2,1.87v9.64h-2.6v-14H62.42z"/>
</g>
<line class="st2" x1="26.26" y1="0" x2="44.21" y2="13.7"/>
<line class="st2" x1="26.56" y1="0" x2="14.13" y2="9.49"/>
<line class="st2" x1="14.23" y1="13.95" x2="14.23" y2="9.27"/>
<path class="st2" d="M75.56,35.69V18.53v-0.36c0,0-0.56-4.55-7.17-4.55H44"/>
<line class="st2" x1="75.78" y1="35.44" x2="4.31" y2="35.94"/>
<line class="st2" x1="4.56" y1="35.69" x2="4.56" y2="19.81"/>
<path class="st2" d="M14.09,13.7c0,0-9.53-0.74-9.53,6.32"/>
</svg>
