<?xml version="1.0" encoding="utf-8"?>
<!-- Generator: Adobe Illustrator 24.3.0, SVG Export Plug-In . SVG Version: 6.00 Build 0)  -->
<svg version="1.1" id="Layer_1" xmlns="http://www.w3.org/2000/svg" xmlns:xlink="http://www.w3.org/1999/xlink" x="0px" y="0px"
	 viewBox="0 0 400 585" style="enable-background:new 0 0 400 585;" xml:space="preserve">
<style type="text/css">
	.st0{fill:none;stroke:#FFFFFF;stroke-width:2;stroke-miterlimit:10;}
	.st1{fill:none;stroke:#FFFFFF;stroke-width:1.6763;stroke-miterlimit:10;}
	.st2{fill:#FFFFFF;}
	.st3{fill:none;stroke:#FFFFFF;stroke-width:1.854;stroke-miterlimit:10;}
	.st4{fill:none;stroke:#FFFFFF;stroke-width:1.7922;stroke-miterlimit:10.0004;}
</style>
<circle class="st0" cx="125.5" cy="185.4" r="35.3"/>
<line class="st1" x1="125.5" y1="220.7" x2="125.5" y2="334.7"/>
<line class="st0" x1="88.8" y1="435.5" x2="125.5" y2="334.7"/>
<line class="st0" x1="125.5" y1="334.7" x2="162.3" y2="435.5"/>
<ellipse class="st0" cx="75" cy="435.7" rx="13.7" ry="6.4"/>
<ellipse class="st0" cx="176" cy="435.7" rx="13.7" ry="6.4"/>
<circle class="st2" cx="112.3" cy="176.4" r="3.9"/>
<circle class="st2" cx="136.5" cy="176.4" r="3.9"/>
<path class="st3" d="M118.9,198.4c-5.8-0.8-10.9-3.1-14.9-6.3c1.1,7.7,8.1,14.3,17.3,15.6c10.9,1.6,20.9-4.7,22.3-14.1
	c0.1-0.9,0.2-1.9,0.1-2.8C138.2,196.6,128.9,199.8,118.9,198.4z"/>
<path class="st0" d="M104.3,171c0-1.9,5.3-3.4,11.9-3.4"/>
<path class="st0" d="M143.4,171c0-1.9-5.3-3.4-11.9-3.4"/>
<g>
	<line class="st0" x1="125.5" y1="249.5" x2="170.4" y2="203.6"/>
	<ellipse transform="matrix(0.1079 -0.9942 0.9942 0.1079 34.7997 285.9779)" class="st4" cx="176.7" cy="123.6" rx="11" ry="6.4"/>
	<line class="st0" x1="170" y1="204" x2="175.6" y2="133.8"/>
</g>
<g>
	<line class="st0" x1="125.6" y1="249.5" x2="80.8" y2="203.6"/>
	<ellipse transform="matrix(0.9942 -0.1079 0.1079 0.9942 -12.9023 8.7493)" class="st4" cx="74.4" cy="123.6" rx="6.4" ry="11"/>
	<line class="st0" x1="81.2" y1="204" x2="75.5" y2="133.8"/>
</g>
</svg>
