<?xml version="1.0" encoding="utf-8"?>
<!-- Generator: Adobe Illustrator 24.3.0, SVG Export Plug-In . SVG Version: 6.00 Build 0)  -->
<svg version="1.1" id="Layer_1" xmlns="http://www.w3.org/2000/svg" xmlns:xlink="http://www.w3.org/1999/xlink" x="0px" y="0px"
	 viewBox="0 0 400 585" style="enable-background:new 0 0 400 585;" xml:space="preserve">
<style type="text/css">
	.st0{fill:none;stroke:#000000;stroke-width:2;stroke-miterlimit:10;}
	.st1{fill:none;stroke:#000000;stroke-width:1.6763;stroke-miterlimit:10;}
	.st2{fill:#FFFFFF;stroke:#000000;stroke-width:2;stroke-miterlimit:10;}
	.st3{fill:none;stroke:#000000;stroke-width:1.854;stroke-miterlimit:10;}
	.st4{fill:#FFFFFF;stroke:#000000;stroke-width:1.7923;stroke-miterlimit:10.0008;}
	.st5{fill:none;stroke:#000000;stroke-width:0.7;stroke-miterlimit:10;}
</style>
<rect x="230.4" y="494" width="120" height="20"/>
<rect x="102" y="94" width="198.4" height="20"/>
<rect x="259.7" y="97.7" transform="matrix(0.7071 -0.7071 0.7071 0.7071 -14.4392 225.2696)" width="10" height="64.7"/>
<rect x="280.4" y="114" width="20" height="380"/>
<rect x="120.5" y="110.1" width="10" height="40"/>
<path class="st0" d="M125.5,150.1c19.5,0,35.3,15.8,35.3,35.3s-15.8,35.3-35.3,35.3s-35.3-15.8-35.3-35.3S106,150.1,125.5,150.1"/>
<line class="st1" x1="125.5" y1="220.7" x2="125.5" y2="334.7"/>
<line class="st0" x1="88.8" y1="435.5" x2="125.5" y2="334.7"/>
<line class="st0" x1="125.5" y1="334.7" x2="162.3" y2="435.5"/>
<ellipse class="st2" cx="75" cy="435.7" rx="13.7" ry="6.4"/>
<ellipse class="st2" cx="176" cy="435.7" rx="13.7" ry="6.4"/>
<circle cx="112.3" cy="176.4" r="3.9"/>
<circle cx="136.5" cy="176.4" r="3.9"/>
<path class="st3" d="M118.9,198.4c-5.8-0.8-10.9-3.1-14.9-6.3c1.1,7.7,8.1,14.3,17.3,15.6c10.9,1.6,20.9-4.7,22.3-14.1
	c0.1-0.9,0.2-1.9,0.1-2.8C138.2,196.6,128.9,199.8,118.9,198.4z"/>
<path class="st0" d="M104.3,171c0-1.9,5.3-3.4,11.9-3.4"/>
<path class="st0" d="M143.4,171c0-1.9-5.3-3.4-11.9-3.4"/>
<line class="st0" x1="125.6" y1="234.5" x2="159.4" y2="258.1"/>
<ellipse transform="matrix(0.9942 -0.1079 0.1079 0.9942 -33.2856 19.4292)" class="st4" cx="162.9" cy="317.3" rx="6.4" ry="11"/>
<line class="st0" x1="159" y1="257.4" x2="161.9" y2="306.7"/>
<line class="st0" x1="125.5" y1="234.5" x2="91.7" y2="258.1"/>
<ellipse transform="matrix(0.1079 -0.9942 0.9942 0.1079 -236.7199 370.7154)" class="st4" cx="88.2" cy="317.3" rx="11" ry="6.4"/>
<line class="st0" x1="92.1" y1="257.4" x2="89.2" y2="306.7"/>
<rect x="85.1" y="293.6" width="9.5" height="6.1"/>
<rect x="156.6" y="293.6" width="9.5" height="6.1"/>
<ellipse class="st5" cx="97.8" cy="296.7" rx="4.2" ry="2.1"/>
<ellipse class="st5" cx="101.9" cy="296.7" rx="4.2" ry="2.1"/>
<ellipse class="st5" cx="93" cy="296.7" rx="4.2" ry="2.1"/>
<ellipse class="st5" cx="106.1" cy="296.7" rx="4.2" ry="2.1"/>
<ellipse class="st5" cx="110.2" cy="296.7" rx="4.2" ry="2.1"/>
<ellipse class="st5" cx="114.4" cy="296.7" rx="4.2" ry="2.1"/>
<ellipse class="st5" cx="118.5" cy="296.7" rx="4.2" ry="2.1"/>
<ellipse class="st5" cx="122.7" cy="296.7" rx="4.2" ry="2.1"/>
<ellipse class="st5" cx="126.8" cy="296.7" rx="4.2" ry="2.1"/>
<ellipse class="st5" cx="130.9" cy="296.7" rx="4.2" ry="2.1"/>
<ellipse class="st5" cx="135.1" cy="296.7" rx="4.2" ry="2.1"/>
<ellipse class="st5" cx="139.2" cy="296.7" rx="4.2" ry="2.1"/>
<ellipse class="st5" cx="143.4" cy="296.7" rx="4.2" ry="2.1"/>
<ellipse class="st5" cx="147.5" cy="296.7" rx="4.2" ry="2.1"/>
<ellipse class="st5" cx="151.7" cy="296.7" rx="4.2" ry="2.1"/>
<ellipse class="st5" cx="155.8" cy="296.7" rx="4.2" ry="2.1"/>
</svg>
