<?xml version="1.0" encoding="utf-8"?>
<!-- Generator: Adobe Illustrator 25.4.1, SVG Export Plug-In . SVG Version: 6.00 Build 0)  -->
<svg version="1.1" id="Layer_1" xmlns="http://www.w3.org/2000/svg" xmlns:xlink="http://www.w3.org/1999/xlink" x="0px" y="0px"
	 viewBox="0 0 1080 115" style="enable-background:new 0 0 1080 115;" xml:space="preserve">
<path d="M0,47.8c0,0,27.7,4.3,47.8,0s79.8-26.3,91.7-30.1c11.9-3.8,15.3-5.6,22.7-4.3s12.6,3.8,21.1,5.8s9.2,1.1,13.5,0.9
	c4.3-0.2,3.6,4.9,9.7,6.7c6.1,1.8,5.2-4,16,2c10.8,6.1,8.1,12.4,20.5,13.9c12.4,1.6,20.2-0.2,31.7-0.7c11.5-0.4,11.7,1.3,19.1,1.1
	s17.3-4.7,24.3-4.7c7,0,13.7,8.3,22,6.3c8.3-2,44.6-28.2,58-27.7c10.6,0.4,6.7,2.9,12.8,5.2c6.1,2.2,12.8,0.9,16.4,3.8
	c3.6,2.9,7.9,11,13.3,11.5c5.4,0.4,2.7-2.7,9.2-1.1c6.5,1.6,4.5-6.3,7.6-6.3c3.1,0,3.6,1.1,9.7,2c6.1,0.9,3.4-5.6,10.3-5.6
	s16.9,0.9,20.5,2.5c3.6,1.6,0.7,4.9,9.4,5.2c8.8,0.2,38.4,1.3,49.9-1.6s10.3-7,13.5-7.9c3.1-0.9,9.4-7,11.2-7.9
	c1.8-0.9,1.8-0.7,3.6-0.4c1.8,0.2,2.9-4,6.5-2c3.6,2,6.5,9.4,20.9,11.9c14.4,2.5,25.6,3.6,37.3,3.1c11.7-0.4,32.2-5.4,34.6-7.6
	c2.5-2.2,10.3-8.3,16.9-5.2s15.3,11.9,24.5,11.7c12.4-0.3,37.3-17.5,47.9-20.2c10.6-2.7,43.2,19.3,58.2,28.3
	c15.1,9,11,15.1,44.3,11.7c33.3-3.4,61.4-22.7,75.3-25.4c13.9-2.7,12.1,4.7,25.2,7s16.9,0.2,23.8,0.9c7,0.7,8.5,0.9,15.3,0.4
	c6.7-0.4,24.3-1.1,32.8,2.9c8.5,4,30.8,9.4,30.8,9.4l0.5,71.5H-0.5L0,47.8z"/>
</svg>
