<?xml version="1.0" encoding="utf-8"?>
<!-- Generator: Adobe Illustrator 25.4.1, SVG Export Plug-In . SVG Version: 6.00 Build 0)  -->
<svg version="1.1" id="Layer_1" xmlns="http://www.w3.org/2000/svg" xmlns:xlink="http://www.w3.org/1999/xlink" x="0px" y="0px"
	 viewBox="0 0 70.9 70.9" style="enable-background:new 0 0 70.9 70.9;" xml:space="preserve">
<path style="fill:#08455F;" d="M63.7,70.9H7.2c-4,0-7.2-3.2-7.2-7.2V7.2C0,3.2,3.2,0,7.2,0h56.5c4,0,7.2,3.2,7.2,7.2v56.5
	C70.9,67.7,67.7,70.9,63.7,70.9z"/>
<g>
	<path style="fill:#FFFFFF;" d="M23.5,57.6L8.8,13.2h6.3l7,21.9c1.9,6,3.5,11.4,4.8,16.6H27c1.3-5.1,3.1-10.7,5.1-16.5l7.6-21.9h6.2
		l-16,44.4L23.5,57.6L23.5,57.6z"/>
	<path style="fill:#FFFFFF;" d="M56.4,13.2v44.4h-5.8V13.2H56.4z"/>
</g>
</svg>
